<?xml version="1.0" encoding="utf-8"?>
<!-- Generator: Adobe Illustrator 16.0.0, SVG Export Plug-In . SVG Version: 6.00 Build 0)  -->
<!DOCTYPE svg PUBLIC "-//W3C//DTD SVG 1.1//EN" "http://www.w3.org/Graphics/SVG/1.1/DTD/svg11.dtd">
<svg version="1.1" id="Layer_1" xmlns="http://www.w3.org/2000/svg" xmlns:xlink="http://www.w3.org/1999/xlink" x="0px" y="0px"
	 width="267.088px" height="304.333px" viewBox="219.079 -4.333 267.088 304.333"
	 enable-background="new 219.079 -4.333 267.088 304.333" xml:space="preserve">
<g id="_002-quality" transform="translate(-30.987)">
	<g id="Group_123" transform="translate(30.987 21.98)">
		<g id="Group_122" transform="translate(0)">
			<path id="Path_93" d="M483.538,121.904L448.38,51.588c-1.445-3.015-4.519-4.906-7.86-4.838H264.728
				c-3.344-0.052-6.413,1.844-7.864,4.858l-35.158,70.316c-1.605,3.184-1.117,7.023,1.235,9.703l123.047,141.211
				c3.187,3.659,8.736,4.044,12.396,0.857c0.306-0.266,0.592-0.553,0.857-0.857L482.29,131.626
				C484.654,128.947,485.149,125.096,483.538,121.904z M426.292,64.329l-22.437,44.871l-33.649-44.871H426.292z M387.782,117.066
				h-70.317l35.159-46.874L387.782,117.066z M335.048,64.329l-33.655,44.871l-22.437-44.871H335.048z M264.731,75.192l20.927,41.874
				h-41.858L264.731,75.192z M248.888,134.639h45.199l43.329,101.604L248.888,134.639z M352.617,227.083l-39.429-92.444h78.867
				L352.617,227.083z M367.829,236.23l43.328-101.604h45.187L367.829,236.23z M419.582,117.066l20.938-41.871l20.931,41.871H419.582
				z"/>
		</g>
	</g>
	<g id="Group_125" transform="translate(69.137 0)">
		<g id="Group_124" transform="translate(0)">
			<path id="Path_94" d="M314.477-2.167c-4.854,0-8.79,3.935-8.79,8.79l0,0v18.163c-0.005,4.854,3.926,8.793,8.781,8.798
				s8.794-3.926,8.798-8.78c0-0.006,0-0.012,0-0.018V6.622C323.266,1.768,319.331-2.167,314.477-2.167z"/>
		</g>
	</g>
	<g id="Group_127" transform="translate(51.796 7.364)">
		<g id="Group_126">
			<path id="Path_95" d="M294.527,29.223L282.1,16.795c-3.365-3.499-8.929-3.607-12.428-0.242
				c-3.499,3.365-3.607,8.929-0.243,12.428c0.079,0.083,0.16,0.163,0.243,0.243L282.1,41.651c3.365,3.499,8.929,3.607,12.428,0.243
				c3.499-3.365,3.607-8.929,0.243-12.428C294.691,29.384,294.61,29.302,294.527,29.223z"/>
		</g>
	</g>
	<g id="Group_129" transform="translate(82.624 7.364)">
		<g id="Group_128" transform="translate(0)">
			<path id="Path_96" d="M363.139,16.795c-3.433-3.431-8.995-3.431-12.428,0l-12.429,12.428c-3.364,3.499-3.256,9.063,0.243,12.428
				c3.403,3.272,8.782,3.272,12.186,0l12.428-12.428C366.57,25.791,366.57,20.227,363.139,16.795z"/>
		</g>
	</g>
</g>
</svg>
