<?xml version="1.0" encoding="utf-8"?>
<!-- Generator: Adobe Illustrator 16.0.0, SVG Export Plug-In . SVG Version: 6.00 Build 0)  -->
<!DOCTYPE svg PUBLIC "-//W3C//DTD SVG 1.1//EN" "http://www.w3.org/Graphics/SVG/1.1/DTD/svg11.dtd">
<svg version="1.1" id="Layer_1" xmlns="http://www.w3.org/2000/svg" xmlns:xlink="http://www.w3.org/1999/xlink" x="0px" y="0px"
	 width="240.702px" height="300px" viewBox="0 0 240.702 300" enable-background="new 0 0 240.702 300" xml:space="preserve">
<g id="_001-documents-symbol" transform="translate(-25.362)">
	<g id="_x38_7_36_" transform="translate(25.362)">
		<g id="Group_121">
			<path id="Path_85" d="M41.498,131.561c-3.437,0.14-6.109,3.039-5.97,6.475c0.132,3.241,2.729,5.838,5.97,5.97h95.723
				c3.438-0.14,6.109-3.039,5.971-6.475c-0.133-3.241-2.729-5.838-5.971-5.969H41.498z"/>
			<path id="Path_86" d="M137.22,160.976H41.498c-3.433,0.14-6.102,3.036-5.962,6.468c0.131,3.237,2.726,5.832,5.962,5.963h95.723
				c3.434-0.14,6.103-3.035,5.963-6.468C143.052,163.701,140.458,161.107,137.22,160.976z"/>
			<path id="Path_87" d="M137.22,188.246H41.498c-3.433,0.139-6.103,3.034-5.963,6.467c0.131,3.238,2.726,5.832,5.963,5.963h95.723
				c3.434-0.08,6.15-2.928,6.07-6.359C143.213,190.996,140.541,188.323,137.22,188.246z"/>
			<path id="Path_88" d="M137.22,217.664H41.498c-3.432,0.113-6.122,2.988-6.008,6.42c0.109,3.271,2.736,5.898,6.008,6.008h95.723
				c3.432-0.114,6.122-2.988,6.008-6.42C143.121,220.4,140.493,217.772,137.22,217.664z"/>
			<path id="Path_89" d="M135.39,245.433H39.646c-3.433,0.14-6.102,3.036-5.962,6.468c0.131,3.238,2.726,5.832,5.962,5.963h95.744
				c3.432-0.139,6.102-3.035,5.963-6.468C141.22,248.158,138.626,245.564,135.39,245.433z"/>
			<path id="Path_90" d="M0,67.91V300h178.725V100.109l-33.21-32.199H0z M163.285,284.549H15.458V83.347h122.104v24.517h25.705
				v176.668L163.285,284.549z"/>
			<path id="Path_91" d="M30.197,32.346v26.863h15.458V47.793h122.126V72.31h25.701v176.672h-6.783v15.45h22.244V64.542
				l-33.224-32.196H30.197z"/>
			<path id="Path_92" d="M207.485,0H61.963v26.87h15.454V15.454h122.112v24.513h25.712v176.671h-6.784v15.451h22.245V32.199
				L207.485,0z"/>
		</g>
	</g>
</g>
</svg>
