<?xml version="1.0" encoding="utf-8"?>
<!-- Generator: Adobe Illustrator 16.0.0, SVG Export Plug-In . SVG Version: 6.00 Build 0)  -->
<!DOCTYPE svg PUBLIC "-//W3C//DTD SVG 1.1//EN" "http://www.w3.org/Graphics/SVG/1.1/DTD/svg11.dtd">
<svg version="1.1" id="Layer_1" xmlns="http://www.w3.org/2000/svg" xmlns:xlink="http://www.w3.org/1999/xlink" x="0px" y="0px"
	 width="169.767px" height="300px" viewBox="0 0 169.767 300" enable-background="new 0 0 169.767 300" xml:space="preserve">
<g id="Group_213">
	<g id="Group_212" transform="translate(0)">
		<path id="Path_112" d="M20.892,151.939h46.926c2.604-0.002,5.05,1.244,6.582,3.35c1.541,2.105,1.978,4.824,1.173,7.307
			L47.52,249.285l97.628-127.58H96.511c-2.855,0-5.501-1.495-6.975-3.939c-1.473-2.446-1.555-5.485-0.219-8.008l49.488-93.479
			H83.872L20.892,151.939z M25.186,300c-1.315,0.002-2.61-0.316-3.775-0.926c-3.509-1.842-5.183-5.941-3.964-9.713l39.193-121.144
			H8.138c-2.78-0.003-5.367-1.424-6.859-3.77c-1.496-2.342-1.692-5.284-0.522-7.805L71.297,4.711C72.631,1.838,75.511,0,78.679,0
			h73.647c2.854-0.001,5.501,1.494,6.974,3.939c1.466,2.445,1.546,5.48,0.21,7.999l-49.479,93.488h51.598
			c3.097,0,5.926,1.758,7.298,4.535c1.371,2.777,1.049,6.092-0.834,8.552L31.657,296.808c-1.544,2.019-3.942,3.2-6.483,3.195"/>
	</g>
</g>
</svg>
