<?xml version="1.0" encoding="utf-8"?>
<!-- Generator: Adobe Illustrator 16.0.0, SVG Export Plug-In . SVG Version: 6.00 Build 0)  -->
<!DOCTYPE svg PUBLIC "-//W3C//DTD SVG 1.1//EN" "http://www.w3.org/Graphics/SVG/1.1/DTD/svg11.dtd">
<svg version="1.1" id="Layer_1" xmlns="http://www.w3.org/2000/svg" xmlns:xlink="http://www.w3.org/1999/xlink" x="0px" y="0px"
	 width="299.993px" height="300px" viewBox="0 0 299.993 300" enable-background="new 0 0 299.993 300" xml:space="preserve">
<g id="Group_153" transform="translate(0)">
	<g id="Group_154">
		<g id="Group_153-2" transform="translate(0 0)">
			<path id="Path_105" d="M241.507,278.779l-79.062-79.061l37.289-37.289l16.912,16.914l-6.215,6.215
				c-3.432,3.433-3.432,8.996,0,12.429c3.431,3.433,8.995,3.435,12.429,0.003c0.001-0.001,0.002-0.002,0.003-0.003l6.212-6.216
				l12.432,12.428l-6.216,6.217c-3.432,3.432-3.432,8.996,0,12.428s8.996,3.432,12.429,0l6.216-6.216l24.859,24.86L241.507,278.779z
				 M83.965,253.336l-12.428-12.429L217.638,94.806l12.428,12.432L83.965,253.34 M22.699,277.317l15.389-44.995l29.606,29.605
				L22.699,277.317z M192.771,69.95L192.771,69.95L205.2,82.378L59.098,228.479L46.67,216.051L192.771,69.95 M21.226,58.512
				L58.51,21.217l24.86,24.86l-6.216,6.216c-3.431,3.432-3.431,8.996,0,12.428c3.432,3.432,8.996,3.432,12.428,0l6.216-6.216
				l12.428,12.432l-6.216,6.216c-3.432,3.432-3.432,8.996,0,12.428c3.432,3.432,8.996,3.432,12.428,0l6.212-6.216l16.914,16.913
				l-37.288,37.288L21.226,58.512z M217.631,45.086L217.631,45.086l37.288,37.289l-12.429,12.428l-37.288-37.289l0,0L217.631,45.086
				z M242.52,20.197c3.415-3.408,8.944-3.408,12.359,0l24.947,24.943c3.408,3.413,3.405,8.943-0.008,12.352
				c-0.012,0.012-0.024,0.024-0.036,0.036l-12.432,12.432l-37.288-37.288l0,0L242.52,20.197z M297.432,235.279l-85.273-85.274
				l80.056-80.056c10.297-10.245,10.339-26.897,0.094-37.194c-0.018-0.018-0.036-0.036-0.054-0.054L267.311,7.758
				c-10.285-10.261-26.935-10.261-37.22,0l-80.081,80.085L64.737,2.569c-3.432-3.432-8.996-3.432-12.428,0L2.596,52.282
				c-3.432,3.432-3.432,8.996,0,12.428l85.273,85.273l-59.84,59.848c-0.964,0.966-1.691,2.142-2.123,3.437L0.452,288.432
				c-1.054,3.158-0.231,6.642,2.123,8.996c2.354,2.354,5.837,3.176,8.995,2.122l75.165-25.447c1.295-0.431,2.471-1.157,3.436-2.123
				l59.833-59.833l85.274,85.273c3.433,3.43,8.995,3.43,12.428,0l49.713-49.713c3.432-3.43,3.434-8.992,0.004-12.424
				c-0.001-0.001-0.003-0.003-0.004-0.004"/>
		</g>
	</g>
</g>
</svg>
